<svg width="34" height="34" viewBox="0 0 34 34" fill="none" xmlns="http://www.w3.org/2000/svg">
<path d="M12.3329 27.0647C12.3347 27.0643 12.3365 27.0638 12.3383 27.0633C12.362 27.0574 12.3863 27.0514 12.4112 27.0453C12.7063 26.9725 13.0799 26.8803 13.4224 26.6864C13.7649 26.4924 14.0361 26.2196 14.2504 26.004C14.2698 25.9844 14.2888 25.9653 14.3073 25.9468L24.4989 15.7552C24.5171 15.737 24.5353 15.7188 24.5534 15.7007C24.9783 15.276 25.3912 14.8632 25.686 14.4769C26.0182 14.0415 26.3305 13.4777 26.3305 12.75C26.3305 12.0223 26.0182 11.4585 25.686 11.0231C25.3912 10.6368 24.9783 10.224 24.5534 9.79931C24.5353 9.78116 24.5171 9.76299 24.4989 9.7448L24.2559 9.50174L23.2541 10.5035L24.2559 9.50173C24.2377 9.48355 24.2195 9.46537 24.2014 9.44722C23.7766 9.02233 23.3639 8.60941 22.9776 8.31469C22.5421 7.98243 21.9783 7.67014 21.2507 7.67014C20.523 7.67014 19.9592 7.98243 19.5237 8.31469C19.1374 8.60941 18.7247 9.02234 18.2999 9.44722C18.2818 9.46537 18.2636 9.48355 18.2454 9.50173L8.05385 19.6933C8.03532 19.7119 8.01622 19.7308 7.99665 19.7503C7.78108 19.9646 7.5082 20.2358 7.31428 20.5783C7.12036 20.9208 7.02818 21.2943 6.95536 21.5894C6.94875 21.6162 6.9423 21.6423 6.93594 21.6678L5.99594 25.4278C5.99197 25.4436 5.98783 25.4601 5.98356 25.4771C5.93139 25.6847 5.85914 25.9721 5.83425 26.2266C5.80561 26.5194 5.79614 27.1596 6.31857 27.6821C6.841 28.2045 7.48128 28.195 7.7741 28.1664C8.02856 28.1415 8.31603 28.0693 8.52355 28.0171C8.54055 28.0128 8.55702 28.0087 8.57289 28.0047L12.3329 27.0647Z" stroke="#1F1F1F" stroke-width="2.83333"/>
<path d="M17.709 10.6251L21.959 7.79175L26.209 12.0417L23.3757 16.2917L17.709 10.6251Z" fill="#1F1F1F"/>
</svg>
