<svg width="607" height="656" viewBox="0 0 607 656" fill="none" xmlns="http://www.w3.org/2000/svg">
<path d="M57 210.177C187.5 190.319 354.88 -49.8299 354.88 113.721C354.88 249.894 136.688 444.505 374.739 332.167C627.228 213.015 553.467 383.232 479.707 598.841" stroke="url(#paint0_linear_92_602)" stroke-width="113.478" stroke-linecap="round"/>
<path d="M488.218 547.793C488.218 571.625 470.116 590.348 448.5 590.348C426.884 590.348 408.783 571.625 408.783 547.793C408.783 523.962 426.884 505.239 448.5 505.239C470.116 505.239 488.218 523.962 488.218 547.793Z" stroke="#1F1F1F" stroke-width="11.3478"/>
<path d="M573.326 570.489C573.326 594.32 555.225 613.043 533.609 613.043C511.992 613.043 493.891 594.32 493.891 570.489C493.891 546.658 511.992 527.935 533.609 527.935C555.225 527.935 573.326 546.658 573.326 570.489Z" stroke="#1F1F1F" stroke-width="11.3478"/>
<circle cx="448.5" cy="567.652" r="11.3478" fill="#1F1F1F"/>
<circle cx="516.587" cy="579" r="11.3478" fill="#1F1F1F"/>
<defs>
<linearGradient id="paint0_linear_92_602" x1="300.978" y1="-25.2717" x2="641.413" y2="703.826" gradientUnits="userSpaceOnUse">
<stop stop-color="#6B41FB"/>
<stop offset="0.478825" stop-color="#FD9ECA"/>
<stop offset="1" stop-color="#FAD026"/>
</linearGradient>
</defs>
</svg>
