<svg width="20" height="19" viewBox="0 0 20 19" fill="none" xmlns="http://www.w3.org/2000/svg">
<path d="M8.66667 1.68707C4.88542 1.68707 1.78693 4.61533 1.78693 8.23348C1.78693 11.8516 4.88542 14.7799 8.66667 14.7799C10.2458 14.7799 11.7025 14.2687 12.8659 13.4122L16.7138 17.0677C16.795 17.1476 16.8915 17.2109 16.9975 17.2544C17.1041 17.2982 17.2185 17.3212 17.3341 17.3224C17.4496 17.3235 17.5645 17.3027 17.672 17.261C17.7795 17.2193 17.8779 17.1574 17.9611 17.0783C18.0444 16.9992 18.1108 16.9045 18.156 16.7995C18.2011 16.6944 18.2239 16.5814 18.2227 16.4672C18.2215 16.353 18.1963 16.2405 18.1489 16.1364C18.1018 16.033 18.034 15.9402 17.95 15.8631L14.1159 12.2208C15.0107 11.1168 15.5464 9.73426 15.5464 8.23348C15.5464 4.61533 12.4479 1.68707 8.66667 1.68707ZM8.66667 3.37989C11.5128 3.37989 13.7869 5.55558 13.7869 8.23348C13.7869 10.9114 11.5128 13.0871 8.66667 13.0871C5.8205 13.0871 3.54641 10.9114 3.54641 8.23348C3.54641 5.55558 5.8205 3.37989 8.66667 3.37989Z" fill="#1F1F1F" stroke="#1F1F1F" stroke-width="0.42615"/>
</svg>
